<?xml version="1.0" encoding="utf-8"?>
<svg viewBox="271.727 95.857 419.857 405.611" width="419.857" height="405.611" xmlns="http://www.w3.org/2000/svg">
  <path fill="#DD4DEF" opacity="1.000000" stroke="none" d="M 712.318 256.475 C 706.849 264.924 698.193 268.375 689.767 270.846 C 672.097 276.028 654.1 280.148 636.137 284.265 C 617.365 288.567 598.479 292.433 580.724 300.162 C 572.836 303.596 565.476 308.651 565.125 317.956 C 564.886 324.304 566.268 331.528 569.329 337.021 C 576.249 349.437 584.467 361.154 592.511 372.913 C 601.039 385.38 610.265 397.378 618.552 409.997 C 620.956 413.659 621.775 418.702 622.16 423.21 C 622.359 425.547 620.679 429.119 618.718 430.385 C 608.421 437.035 593.951 437.745 585.481 424.769 C 577.846 413.073 575.096 399.75 570.769 386.889 C 565.376 370.863 560.225 354.675 553.489 339.201 C 545.929 321.833 531.678 310.873 514.482 303.263 C 484.114 289.825 453.93 275.971 423.679 262.271 C 419.579 260.414 415.529 258.444 411.456 256.526 C 411.163 256.895 410.87 257.264 410.577 257.634 C 413.929 262.927 417.216 268.263 420.647 273.504 C 427.606 284.135 430.537 295.929 430.674 308.47 C 430.812 321.121 431.168 333.798 430.573 346.424 C 429.76 363.685 427.019 380.464 415.902 394.811 C 407.401 405.782 396.122 412.989 384.348 419.578 C 377.257 423.547 369.852 426.982 362.463 430.383 C 354 434.279 347.915 430.979 347.845 421.617 C 347.742 407.992 348.418 394.334 349.377 380.734 C 350.477 365.143 352.507 349.618 353.642 334.028 C 354.463 322.758 354.858 311.425 354.709 300.131 C 354.629 294.078 353.304 287.978 351.996 282.019 C 349.672 271.43 342.04 266.033 332.285 262.919 C 308.867 255.444 285.148 255.619 261.269 260.094 C 243.455 263.433 225.667 266.914 207.838 270.168 C 206.35 270.439 204.634 269.461 203.025 269.063 C 203.578 267.448 203.653 265.304 204.761 264.302 C 214.006 255.941 223.336 247.665 232.844 239.604 C 246.174 228.304 259.932 217.584 275.918 210.141 C 285.229 205.806 294.869 203.248 305.276 203.539 C 320.258 203.958 335.252 203.892 350.236 204.254 C 362.007 204.538 372.097 209.315 381.103 216.641 C 382.476 217.758 383.82 218.911 385.833 220.596 C 388.836 206.44 398.286 197.534 407.434 188.457 C 410.021 185.89 412.888 183.567 415.824 181.398 C 420.586 177.88 427.413 177.735 432.991 182.492 C 440.398 188.81 447.714 195.55 453.655 203.206 C 465.775 218.825 476.479 235.546 488.688 251.089 C 496.038 260.447 504.897 268.68 513.557 276.914 C 516.42 279.636 520.605 281.36 524.49 282.533 C 533.481 285.247 537.858 283.172 540.186 273.955 C 545.181 254.176 549.862 234.295 553.878 214.297 C 558.948 189.049 563.158 163.63 567.918 138.318 C 568.68 134.267 570.224 130.336 571.668 126.446 C 574.555 118.665 577.08 117.299 585.436 116.884 C 601.569 116.082 616.798 119.524 631.524 125.793 C 637.836 128.481 640.062 132.618 636.907 139.001 C 630.304 152.361 623.3 165.548 615.878 178.471 C 606.866 194.162 597.103 209.421 588.015 225.07 C 585.983 228.57 585.041 232.844 584.241 236.889 C 582.485 245.766 586.126 250.392 595.251 251.572 C 608.936 253.343 622.426 252.013 635.914 249.455 C 653.395 246.14 670.907 242.939 688.492 240.25 C 693.466 239.49 698.848 240.136 703.851 241.116 C 712.459 242.801 714.866 247.457 712.318 256.475 Z" style="transform-origin: 458.153px 275.911px;" transform="matrix(0.743144094944, 0.669131100178, -0.669131100178, 0.743144094944, 0.000036036397, 0.000007336768)"/>
</svg>